<svg xmlns="http://www.w3.org/2000/svg" width="24" height="24" viewBox="0 0 24 24"><g><path d="M17 1.026v-.526c0-.275-.225-.5-.5-.5-.276 0-.5.225-.5.5v10.5h-11.5c-.276 0-.5.225-.5.5 0 2.482 1.399 4.643 3.45 5.737l-.944 6.188c-.046.299.183.575.494.575.243 0 .456-.177.494-.425l.545-3.575h4.591l.009.203c-.671.323-1.139 1.004-1.139 1.797 0 1.104.896 2 2 2 1.103 0 2-.896 2-2 0-1.058-.828-1.917-1.868-1.986l-.118-2.76c1.937-1.019 3.295-2.983 3.462-5.277 2.81-.243 5.024-2.605 5.024-5.477 0-2.863-2.201-5.221-5-5.474zm-7.5 11.974h2c.275 0 .5.225.5.5 0 .276-.225.5-.5.5h-2c-.276 0-.5-.224-.5-.5 0-.275.224-.5.5-.5zm-1.308 6l.206-1.354c.661.226 1.366.354 2.102.354.709 0 1.391-.118 2.031-.329l.057 1.329h-4.396zM5.5 10h9c.275 0 .5-.224.5-.5 0-.275-.225-.5-.5-.5h-9c-.276 0-.5.225-.5.5 0 .276.224.5.5.5z"/></g></svg>